# xmcd
#
# Track frame offsets:
#	150
#	17313
#	36214
#	53728
#	73230
#	91945
#	111405
#	132910
#	148998
#	167830
#	188565
#	216361
#	231844
#	248456
#	263726
#	283034
#
# Disc length: 4109 seconds
#
# Revision: 0
# Processed by: cddbd v1.5.2PL0 Copyright (c) Steve Scherf et al.
# Submitted via: EZCDAudioConverter 2.1.7.1
#
DISCID=e7100b10
DTITLE=Jakie Mittoo - Striker Showcase 1/2
DYEAR=1900
DGENRE=
TTITLE0=Champions Of The Arena
TTITLE1=Hot Milk
TTITLE2=Darker Shade Of Black
TTITLE3=Drum Song
TTITLE4=The Sniper
TTITLE5=Peace Treaty
TTITLE6=North Of The Sun
TTITLE7=Jumping Jack
TTITLE8=Super Charge
TTITLE9=One Step Forward
TTITLE10=Death Trap
TTITLE11=Earthquake
TTITLE12=Atom Sounds
TTITLE13=In Cold Blood
TTITLE14=Ram Jam
TTITLE15=Clean Up The Arena
EXTD=
EXTT0=
EXTT1=
EXTT2=
EXTT3=
EXTT4=
EXTT5=
EXTT6=
EXTT7=
EXTT8=
EXTT9=
EXTT10=
EXTT11=
EXTT12=
EXTT13=
EXTT14=
EXTT15=
PLAYORDER=
